<?xml version="1.0" encoding="UTF-8" standalone="no"?>
<!-- Created with Inkscape (http://www.inkscape.org/) -->

<svg
   width="145.7845mm"
   height="152.91191mm"
   viewBox="0 0 145.7845 152.91191"
   version="1.1"
   id="svg1"
   xml:space="preserve"
   sodipodi:docname="rysunek.svg"
   inkscape:version="1.4 (e7c3feb1, 2024-10-09)"
   xmlns:inkscape="http://www.inkscape.org/namespaces/inkscape"
   xmlns:sodipodi="http://sodipodi.sourceforge.net/DTD/sodipodi-0.dtd"
   xmlns="http://www.w3.org/2000/svg"
   xmlns:svg="http://www.w3.org/2000/svg"><sodipodi:namedview
     id="namedview1"
     pagecolor="#ffffff"
     bordercolor="#000000"
     borderopacity="0.25"
     inkscape:showpageshadow="2"
     inkscape:pageopacity="0.0"
     inkscape:pagecheckerboard="0"
     inkscape:deskcolor="#d1d1d1"
     inkscape:document-units="mm"
     inkscape:zoom="0.70110297"
     inkscape:cx="320.9229"
     inkscape:cy="510.624"
     inkscape:window-width="1344"
     inkscape:window-height="877"
     inkscape:window-x="81"
     inkscape:window-y="51"
     inkscape:window-maximized="0"
     inkscape:current-layer="layer1"><inkscape:page
       x="-6.3369693e-14"
       y="-5.5775395e-14"
       width="145.78452"
       height="152.91193"
       id="page2"
       margin="0"
       bleed="0" /></sodipodi:namedview><defs
     id="defs1" /><g
     inkscape:label="Warstwa 1"
     inkscape:groupmode="layer"
     id="layer1"
     inkscape:export-filename="repos/furry-garden/public/layer1.svg"
     inkscape:export-xdpi="78.619049"
     inkscape:export-ydpi="78.619049"
     transform="translate(-31.719599,-56.235993)"><path
       style="fill:#000000"
       d="m 73.259185,208.80262 c -2.889198,-0.63843 -4.80977,-2.14092 -5.526992,-4.32384 -0.582358,-1.77246 -0.672973,-5.30421 -0.18493,-7.2077 0.858849,-3.34973 2.717883,-5.39693 6.411482,-7.06045 l 2.243387,-1.01037 -0.170013,-1.32681 c -0.09351,-0.72974 -0.692706,-3.94618 -1.331552,-7.14763 -1.581483,-7.92531 -2.420065,-13.29698 -2.788061,-17.85938 -0.527066,-6.53455 0.09819,-15.53607 1.574457,-22.66681 l 0.721399,-3.48454 -2.618186,-1.92825 c -2.746921,-2.02306 -5.072615,-4.35877 -6.881897,-6.91154 -0.781462,-1.10258 -1.24667,-1.52135 -1.690067,-1.52135 -0.84441,0 -6.242044,2.82064 -9.324403,4.87265 -7.882861,5.24783 -13.594985,10.9712 -17.74829,17.78322 -1.925341,3.15784 -2.028554,3.2733 -2.926088,3.2733 -0.95143,0 -1.299829,-0.62431 -1.299829,-2.3292 0,-4.34831 2.242147,-11.66441 5.239563,-17.09665 4.347781,-7.87951 12.077018,-14.16273 20.555456,-16.70987 l 2.53329,-0.76106 -0.176394,-2.25526 c -0.09702,-1.24039 -0.190536,-2.2753 -0.207821,-2.29979 -0.172769,-0.24482 -5.287062,-0.65902 -8.221457,-0.66584 -3.946599,-0.009 -6.682505,0.2999 -9.977137,1.12711 -3.097157,0.77763 -3.924667,0.62411 -3.924667,-0.72814 0,-0.75929 0.714814,-1.21715 2.974125,-1.90501 4.380896,-1.33377 11.385257,-1.92925 16.315101,-1.38703 1.514023,0.16652 2.782454,0.27152 2.818738,0.23332 0.03628,-0.0382 0.148842,-0.73912 0.25013,-1.5576 l 0.184161,-1.48813 -2.184693,-0.83426 c -4.379827,-1.6725 -9.426865,-2.90744 -14.66902,-3.58932 -2.312561,-0.300814 -3.264837,-0.533501 -3.505729,-0.856622 -0.470152,-0.630639 -0.41219,-1.054774 0.232208,-1.699172 0.525373,-0.525373 0.732184,-0.550515 3.099176,-0.376766 4.978364,0.365435 13.020035,2.059917 16.320486,3.43893 0.541259,0.22616 1.132355,0.41119 1.313547,0.41119 0.181192,0 0.718383,-1.041797 1.193758,-2.315104 1.830537,-4.903146 4.740583,-10.154424 7.999794,-14.435901 l 1.586634,-2.084289 0.356243,-3.405319 c 0.780453,-7.460342 2.915449,-16.976182 4.537731,-20.225011 1.65076,-3.305863 4.211731,-2.981377 8.141151,1.031518 1.667028,1.702441 6.226678,7.104138 7.805208,9.246623 l 0.926042,1.256885 1.322917,-0.143492 c 9.692287,-1.051287 14.764127,-0.815808 20.982057,0.974169 l 1.93206,0.556187 1.63982,-1.592058 c 5.37147,-5.215021 11.32247,-9.840914 15.13356,-11.763776 2.34158,-1.18143 2.79262,-1.321152 3.92231,-1.215047 0.70206,0.06594 1.59503,0.350197 1.98437,0.63168 2.52638,1.826494 3.73386,9.457926 3.36353,21.257935 -0.10276,3.274219 -0.32578,7.262813 -0.49561,8.863542 l -0.30878,2.910416 1.49638,3.175 c 1.75472,3.723132 2.90686,7.059032 3.67705,10.646492 0.71535,3.33201 0.97599,9.77214 0.52813,13.04941 l -0.32403,2.37113 0.83166,1.77721 c 1.2197,2.60644 2.69287,4.35336 5.82063,6.90221 4.67142,3.8068 6.65972,5.68643 9.26926,8.7626 9.3029,10.96645 13.49717,22.60198 13.49357,37.43325 -0.002,7.15886 -1.07221,14.54819 -2.9019,20.03139 -2.24248,6.72027 -5.0979,10.68542 -9.3126,12.93183 -3.08809,1.64594 -0.99001,1.5776 -47.84501,1.55833 -32.504467,-0.0134 -43.078452,-0.0945 -44.185415,-0.33914 z m 7.408333,-4.60559 c 0,-2.63794 1.208656,-5.76742 2.440897,-6.32003 1.255478,-0.56303 1.583789,0.14104 0.866395,1.85801 -0.534215,1.27855 -0.525193,4.37007 0.015,5.14131 0.394208,0.56281 0.580583,0.58804 4.344298,0.58804 h 3.93242 l -0.275989,-0.99219 c -0.344954,-1.24012 -0.10646,-4.77086 0.446011,-6.60291 0.536896,-1.78039 1.804141,-3.43242 3.453307,-4.50186 0.722764,-0.46869 1.521199,-1.00448 1.7743,-1.19063 0.349602,-0.25712 0.556232,-1.13129 0.859895,-3.63785 0.691507,-5.70797 0.724571,-5.54184 -1.593345,-8.0058 -3.197336,-3.39879 -6.692137,-9.1584 -7.586796,-12.50343 -0.3599,-1.34562 -0.03067,-1.98825 1.01863,-1.98825 0.499904,0 0.890861,0.40667 1.844101,1.91823 2.159245,3.42392 3.859927,5.84771 5.499233,7.83742 l 1.606952,1.95045 0.180834,-0.88419 c 0.09946,-0.4863 0.321919,-2.55462 0.494354,-4.59627 0.332335,-3.93486 0.593515,-4.63814 1.722485,-4.63814 1.26719,0 1.31578,0.32709 1.29336,8.70649 -0.0206,7.69225 -0.48654,14.34568 -1.17299,16.74924 -0.23612,0.82677 -0.53428,1.11708 -1.88855,1.8389 -3.441351,1.83423 -4.722721,3.89369 -4.722721,7.59052 0,2.49434 0.33344,2.95027 2.157674,2.95027 h 1.281909 l 0.0026,-1.65365 c 0.0041,-2.62535 1.472538,-5.22552 2.951088,-5.22552 0.73891,0 0.78484,0.4057 0.19945,1.76204 -0.30401,0.70437 -0.61888,1.90753 -0.69973,2.67369 -0.21479,2.03548 0.23506,2.44344 2.6943,2.44344 h 1.89068 l 0.28384,-1.97023 c 0.44508,-3.08944 2.01134,-5.36191 3.1312,-4.54305 0.44642,0.32643 0.44843,0.41559 0.0366,1.62438 -0.50852,1.49244 -0.57635,4.11335 -0.1183,4.5714 0.43868,0.43868 3.9849,0.40629 5.06806,-0.0463 3.50253,-1.46345 4.96963,-5.3906 8.11593,-21.72477 1.59725,-8.29224 1.92423,-9.73878 3.05108,-13.49791 1.13964,-3.80179 2.66621,-7.08112 4.74192,-10.18646 3.09713,-4.63341 5.19573,-6.00976 5.3765,-3.52613 0.066,0.90633 -0.0821,1.33284 -0.82684,2.38125 -3.26838,4.60128 -5.97331,11.31362 -6.79799,16.86937 -0.38965,2.62505 -0.3852,6.9956 0.009,9.1936 0.40804,2.2731 1.25352,5.28636 1.57288,5.60572 0.17233,0.17234 0.7374,0.14916 1.65668,-0.0679 3.62452,-0.85598 8.7689,-0.55384 13.73295,0.80658 2.19884,0.6026 2.7886,1.09911 2.47587,2.08443 -0.24561,0.77387 -1.14228,0.87134 -3.46346,0.37648 -3.21395,-0.68518 -8.0193,-0.80856 -10.70616,-0.27487 -3.99905,0.79432 -7.20563,2.67666 -8.59322,5.0444 -2.05065,3.49916 -0.97839,7.28003 2.06462,7.28003 h 0.91299 l 0.15553,-1.85519 c 0.18159,-2.16596 1.22451,-4.38019 2.36168,-5.01409 0.65297,-0.36398 0.76236,-0.36005 1.16432,0.0419 0.41513,0.41514 0.40405,0.53399 -0.1725,1.84957 -0.70014,1.59759 -0.83778,3.88146 -0.27481,4.5598 0.3279,0.3951 1.73647,0.4276 15.60097,0.36001 l 15.24052,-0.0743 1.53812,-0.77936 c 1.88951,-0.95739 4.48886,-3.64476 5.64824,-5.83948 1.82294,-3.45087 3.69008,-10.13079 4.47091,-15.99522 0.79737,-5.98864 0.36748,-15.81769 -0.93188,-21.30678 -1.90663,-8.05445 -6.13265,-16.0771 -11.85344,-22.50249 -2.17381,-2.44155 -3.274,-3.43513 -9.12711,-8.24266 -1.09884,-0.90255 -2.7949,-2.64345 -3.76902,-3.86867 -0.98315,-1.23657 -2.23028,-2.48572 -2.80316,-2.8077 -0.61108,-0.34344 -1.03204,-0.77709 -1.03204,-1.06315 0,-0.26571 0.24357,-1.65708 0.54125,-3.09192 1.78922,-8.62406 0.13067,-18.78508 -4.2263,-25.892148 -1.27731,-2.083544 -1.24255,-1.50649 -0.50199,-8.334375 0.50123,-4.621218 0.42438,-17.192504 -0.1259,-20.594004 -0.5167,-3.193939 -0.88903,-4.1122 -1.71514,-4.229915 -1.70302,-0.242671 -9.23421,5.389435 -16.4957,12.336108 l -2.57269,2.461147 -2.59916,-0.791646 c -5.11896,-1.559122 -6.56235,-1.750838 -13.0502,-1.733373 -6.59629,0.01776 -9.041667,0.373943 -13.67589,1.99199 -7.127294,2.488507 -14.234408,8.074653 -18.63508,14.647054 -2.531375,3.780608 -5.789029,10.935552 -5.789029,12.714732 0,0.18821 0.744141,0.72796 1.653646,1.19946 3.77405,1.9565 4.510982,2.82132 3.373437,3.95886 -0.744008,0.74401 -1.402403,0.66708 -3.760176,-0.43935 -1.135139,-0.53269 -2.109091,-0.91964 -2.164338,-0.8599 -0.05525,0.0598 -0.177933,0.58488 -0.272634,1.16696 l -0.172185,1.05833 1.245987,0.39688 c 0.685293,0.21828 1.369247,0.59826 1.519898,0.84441 0.40334,0.659 -0.459084,1.48931 -1.65014,1.58869 l -0.96412,0.0804 -0.07979,1.69291 c -0.04388,0.93111 0.01565,1.77955 0.132291,1.88543 0.163386,0.1483 7.418479,-0.46964 7.677968,-0.65396 0.03165,-0.0225 -0.07616,-0.47656 -0.239592,-1.00906 -0.617405,-2.01169 1.226069,-2.51372 2.66329,-0.72529 1.387367,1.72639 3.468709,2.42349 5.556976,1.86117 1.347886,-0.36294 1.843832,-1.22098 2.063132,-3.56941 l 0.158181,-1.69392 -1.300942,-1.27519 c -1.91412,-1.87622 -2.811852,-3.56125 -2.845555,-5.34106 l -0.02763,-1.45894 1.5875,-0.49002 c 2.704772,-0.834902 7.515114,-0.61935 10.078281,0.45161 0.80319,0.3356 0.901927,0.48759 0.901927,1.38838 0,0.92047 -0.205199,1.21345 -2.279516,3.25465 -3.955199,3.89204 -4.575779,5.46656 -3.007745,7.63116 1.103052,1.52272 3.737021,3.39463 5.496205,3.90604 3.151736,0.91623 6.170597,0.17878 9.257788,-2.2615 1.542595,-1.21935 1.896245,-1.29678 2.562165,-0.56096 1.06407,1.17579 -0.76843,3.49662 -4.076129,5.16235 -1.176045,0.59225 -2.096496,1.27973 -2.571044,1.92031 -2.596479,3.50491 -4.647948,5.26479 -7.543485,6.47126 -1.157201,0.48217 -1.932115,0.58974 -4.32053,0.59975 -2.821546,0.0118 -2.961326,-0.0154 -4.577659,-0.8918 -1.915168,-1.03844 -2.785083,-1.96465 -3.68611,-3.92464 -0.351211,-0.76399 -0.77493,-1.38906 -0.941599,-1.38906 -0.527151,0 -6.923265,1.90489 -7.174003,2.13656 -0.605409,0.55937 5.045777,6.33394 8.33896,8.52103 4.050989,2.69037 8.246969,4.3946 12.538327,5.09256 2.778095,0.45184 8.89437,0.51249 11.072708,0.10981 1.704334,-0.31507 2.433234,-0.17459 2.817244,0.54295 0.61415,1.14754 -0.38411,1.84685 -3.763084,2.63613 -3.214335,0.75083 -5.570858,0.90043 -8.765663,0.55645 -3.196273,-0.34413 -6.461101,-1.21224 -9.484778,-2.52197 l -2.038157,-0.88285 -0.408602,1.89268 c -1.42328,6.59276 -1.837923,11.28747 -1.651054,18.69373 0.185089,7.33572 0.725933,11.19531 3.225612,23.01874 1.317186,6.23026 1.636943,8.69094 1.228527,9.45407 -0.189846,0.35473 -0.666931,0.57812 -1.469673,0.68815 -3.268918,0.44805 -5.991033,2.03712 -7.169899,4.1855 -0.697143,1.27048 -0.777187,1.66277 -0.783768,3.84113 -0.0083,2.74845 0.356174,3.54965 1.995854,4.38737 l 0.907234,0.46351 0.156545,-2.05101 c 0.17373,-2.27615 1.081914,-4.9591 1.810695,-5.34913 0.324507,-0.17367 0.620627,-0.14545 0.942361,0.0898 0.447872,0.32749 0.448202,0.40615 0.0073,1.73369 -0.594891,1.79105 -0.46946,4.5071 0.244582,5.29611 0.398394,0.44022 0.813059,0.54414 2.171226,0.54414 h 1.678785 z m 47.005442,-83.01741 c -6.53811,-3.05309 -12.21251,-5.07506 -17.75313,-6.32599 -3.08556,-0.69664 -4.23035,-1.3514 -3.62922,-2.07573 0.17151,-0.20665 0.8449,-0.44879 1.49643,-0.5381 3.17537,-0.43523 13.69041,2.64841 20.37319,5.97465 3.11989,1.55287 4.36561,2.43314 4.36561,3.08487 0,0.55221 -0.79797,1.35206 -1.34375,1.34691 -0.20681,-0.002 -1.78592,-0.66192 -3.50913,-1.46661 z m -22.86221,-11.52246 c -0.44364,-0.45927 -0.41882,-1.43357 0.0484,-1.90082 0.77884,-0.77884 6.66659,-1.80996 12.46364,-2.18276 5.10617,-0.32838 15.40828,0.85119 16.56328,1.89645 0.27051,0.24481 0.49183,0.78157 0.49183,1.1928 0,1.0458 -0.70808,1.15705 -4.0095,0.62994 -6.30418,-1.00654 -14.62606,-1.00719 -20.06758,-0.002 -3.53832,0.6539 -5.1107,0.75871 -5.4901,0.36594 z m 5.99092,-11.481017 c -1.60701,-1.371715 -3.71217,-2.249276 -5.39574,-2.249276 -1.37972,0 -3.44113,0.761009 -5.0386,1.860093 -2.983987,2.05304 -4.450238,-0.430085 -1.651503,-2.796859 1.247439,-1.054906 3.837433,-2.204918 5.707793,-2.534375 3.1413,-0.553329 6.37692,0.793003 8.28669,3.448067 1.10544,1.536836 1.27642,2.384817 0.61435,3.046883 -0.63337,0.63337 -1.00851,0.518203 -2.52299,-0.774533 z M 80.174098,95.537011 c -0.771638,-0.796221 -1.459768,-1.24227 -2.102496,-1.362846 -1.212102,-0.227392 -3.097946,0.270133 -4.19466,1.106638 -0.976411,0.744745 -1.476285,0.808743 -1.941219,0.248532 -0.855352,-1.030636 0.486559,-3.328886 2.487762,-4.260713 2.559958,-1.192003 5.443947,-0.506159 7.379313,1.754881 2.462861,2.877299 0.964631,5.189457 -1.6287,2.513508 z M 128.95398,82.412513 c -0.7276,-0.569867 -1.73964,-1.220732 -2.24896,-1.446368 -1.38321,-0.612779 -1.67954,-0.793518 -1.77614,-1.083325 -0.10165,-0.304959 3.88025,-5.152856 6.45184,-7.855016 1.63042,-1.713198 1.7811,-1.810075 2.11186,-1.357731 0.45185,0.617939 0.45591,0.525494 -0.18057,4.11 -0.83451,4.69972 -1.57829,7.993738 -1.88969,8.368959 -0.45533,0.548648 -1.05646,0.369279 -2.46834,-0.736519 z M 42.14273,136.27476 c 8.919573,-8.85543 17.88264,-13.72364 32.439371,-17.61916 1.236927,-0.33101 2.367213,-0.70397 2.511746,-0.8288 0.345165,-0.29812 -8.184426,-0.21715 -10.581537,0.10044 -4.598407,0.60924 -10.379433,2.36852 -13.626042,4.14669 -5.675643,3.10854 -10.576577,8.18755 -13.703975,14.2019 -0.952682,1.83212 -2.702646,5.67618 -2.695012,5.92001 0.0028,0.091 0.436771,-0.37038 0.964273,-1.02522 0.527503,-0.65484 2.638532,-2.85798 4.691176,-4.89586 z m 42.329877,-11.25168 c 0.981263,-0.86156 1.751161,-2.68181 1.751161,-4.14022 v -0.87891 h -1.639993 c -1.001412,0 -2.469496,0.25668 -3.770312,0.6592 -3.020612,0.9347 -3.003702,0.91706 -2.197938,2.29199 1.618757,2.7622 4.077608,3.63034 5.857082,2.06794 z M 78.449889,76.549047 c 2.251371,-1.639342 6.993872,-4.113036 9.395836,-4.900878 L 89.33539,71.15956 88.781998,70.380193 c -2.124815,-2.992477 -8.587085,-10.172076 -9.155762,-10.172076 -0.446375,0 -0.72063,0.778143 -1.818418,5.159375 -0.93444,3.72932 -1.744484,7.963128 -2.327056,12.162681 -0.177985,1.283026 -0.169519,1.30538 0.350701,0.926041 0.293199,-0.213797 1.47149,-1.072022 2.618426,-1.907167 z"
       id="path1" /><path
       style="fill:#7d9d26;fill-opacity:1;stroke-width:0.184035"
       d="m 138.21288,536.73904 c 0.50845,-1.69425 5.14419,-11.87002 8.38403,-18.40353 7.15017,-14.41913 15.18615,-25.57923 26.32501,-36.55931 8.15059,-8.03441 16.29467,-14.20791 26.13522,-19.81143 3.16135,-1.80018 8.99062,-4.4438 13.96376,-6.33268 12.07349,-4.58573 29.2373,-8.88369 39.84365,-9.97719 5.97582,-0.6161 19.53279,-1.01913 29.1696,-0.86717 7.03359,0.1109 9.01773,0.21863 9.01773,0.4896 0,0.35506 -4.19625,1.71846 -11.04212,3.58769 -43.79416,11.95773 -72.92135,25.7842 -100.02321,47.4803 -8.07899,6.46755 -13.21447,11.15686 -23.56269,21.51555 -8.58039,8.58907 -12.30192,12.49209 -15.36819,16.11764 -0.98446,1.16403 -2.05789,2.36486 -2.3854,2.66852 -0.59096,0.54793 -0.59442,0.54862 -0.45739,0.092 z"
       id="path3"
       transform="scale(0.26458333)" /><path
       style="fill:#ffb380;fill-opacity:1;stroke-width:0.957338"
       d="m 290.98179,773.95379 c -2.47026,-2.72961 -3.01128,-12.52193 -1.05965,-19.17956 1.6721,-5.70407 0.97755,-7.57172 -2.81582,-7.57172 -3.9213,0 -6.64217,6.42296 -8.4274,19.89397 l -1.06028,8.00063 -4.04351,-2.9291 c -4.78421,-3.46567 -5.53796,-5.65344 -5.46791,-15.87079 0.0377,-5.49343 0.57,-8.73237 1.88292,-11.45631 4.02373,-8.34807 12.81649,-14.18811 25.73272,-17.09133 3.63368,-0.81676 6.99716,-2.0513 7.47438,-2.74344 1.66462,-2.41424 -0.11199,-15.82104 -5.87556,-44.33864 -9.4802,-46.90712 -10.08333,-52.22369 -10.04573,-88.55379 0.0305,-29.49035 0.16596,-31.85434 2.59626,-45.31452 2.97728,-16.4896 4.26998,-21.69916 5.38442,-21.69916 0.44072,0 3.11899,1.02499 5.9517,2.27775 21.07716,9.32131 45.66843,12.3822 66.07269,8.22408 15.43827,-3.14612 20.03113,-5.76051 18.51449,-10.539 -1.12644,-3.54912 -3.7828,-4.0705 -14.22147,-2.79134 -12.20871,1.49606 -33.47167,0.59735 -44.64303,-1.88691 -14.2146,-3.161 -28.73242,-9.54828 -41.90404,-18.43615 -11.64366,-7.85685 -32.5527,-29.07944 -30.58673,-31.04541 0.4579,-0.45791 25.14542,-8.03 26.18042,-8.03 0.18181,0 1.62079,2.55595 3.19775,5.67987 3.39907,6.73353 7.71464,11.15793 14.60948,14.97794 4.82999,2.676 5.56591,2.79629 17.01506,2.78121 11.75431,-0.0155 12.09601,-0.0772 19.24923,-3.47783 7.85969,-3.73646 18.29277,-12.72188 24.34559,-20.96747 2.39429,-3.26167 6.10712,-6.26786 12.88688,-10.43417 12.75925,-7.84084 17.1893,-13.80349 13.93999,-18.76258 -0.84561,-1.29056 -2.28683,-2.34647 -3.20271,-2.34647 -0.91587,0 -4.81441,2.13474 -8.66342,4.74388 -10.33793,7.00783 -16.14755,8.9315 -25.53925,8.45655 -9.04739,-0.45755 -14.93485,-3.17611 -23.18835,-10.7073 -5.41819,-4.94401 -7.91328,-8.74567 -7.91328,-12.05712 0,-3.828 4.05665,-9.90394 12.39949,-18.57161 9.33754,-9.70111 10.57663,-11.56302 10.57663,-15.89286 0,-2.59726 -0.5348,-3.22535 -4.08254,-4.79469 -9.03968,-3.99867 -27.06875,-4.56837 -39.26926,-1.24083 l -5.53694,1.51012 0.64131,5.84817 c 0.81747,7.45462 3.61445,12.95408 10.36988,20.38938 l 5.38338,5.92518 -1.0357,6.48321 c -1.35156,8.46043 -2.59099,10.13142 -8.78799,11.8478 -5.75753,1.59467 -11.31946,-0.36741 -18.03982,-6.36387 -6.05193,-5.40004 -8.37529,-6.16535 -10.93773,-3.60291 -1.16702,1.16701 -1.39723,2.54179 -0.93819,5.60285 l 0.60829,4.05638 -6.07089,0.59969 c -3.339,0.32983 -9.62502,0.8861 -13.96894,1.23615 l -7.89804,0.63646 v -6.24669 -6.24669 l 4.1743,-1.0511 c 8.07549,-2.03343 8.34742,-6.66635 0.55377,-9.43441 -3.97654,-1.41235 -4.72574,-2.062 -4.71341,-4.08723 0.0294,-4.83132 1.10906,-5.1595 7.74424,-2.35403 11.49822,4.86163 14.31385,4.94857 16.60768,0.51281 2.20864,-4.27105 0.41769,-6.39112 -10.64112,-12.59653 -9.66783,-5.4249 -9.69206,-5.4696 -7.18431,-13.2559 3.21484,-9.98175 15.54778,-34.04891 22.3229,-43.56211 19.01105,-26.69413 49.00158,-47.60043 79.70802,-55.56422 11.9537,-3.10022 32.90322,-4.72601 50.34608,-3.9071 15.89212,0.7461 21.32444,1.63568 35.6387,5.83612 6.17462,1.8119 11.70495,3.29437 12.28965,3.29437 0.58469,0 6.08738,-4.6976 12.22821,-10.43912 29.06602,-27.17597 55.65807,-46.76975 60.79771,-44.79749 4.17274,1.60124 6.21439,14.87954 6.94748,45.18456 0.38988,16.11681 0.20021,29.9527 -0.53807,39.25087 -0.62711,7.89804 -1.37516,18.68019 -1.66232,23.96034 l -0.52213,9.60028 5.80743,10.9825 c 6.55229,12.3911 10.54824,23.56181 13.68861,38.26663 3.0906,14.47182 3.11562,39.79801 0.055,55.70997 l -2.15307,11.19374 10.08514,10.19573 c 5.54682,5.60766 10.08513,10.56747 10.08513,11.02179 0,0.45432 8.07755,7.67526 17.9501,16.0465 23.04621,19.54162 34.68653,32.68233 46.98141,53.03712 11.40336,18.87885 21.52033,44.89228 24.49492,62.98295 4.11261,25.01192 4.4223,61.33786 0.69487,81.50544 -4.21652,22.81381 -11.55213,45.28473 -17.94902,54.98264 -4.43443,6.72275 -14.28401,15.94167 -20.27669,18.97839 l -5.0094,2.53845 -56.90252,-0.26138 c -43.7406,-0.20094 -57.17726,-0.53623 -58.09023,-1.44956 -1.76588,-1.76656 -1.2979,-9.54153 0.9585,-15.92429 2.13979,-6.05296 1.59052,-9.21435 -1.60096,-9.21435 -5.02821,0 -10.13318,8.48857 -11.78529,19.59664 l -1.07219,7.20883 h -3.16086 c -6.65229,0 -11.75385,-7.64216 -10.62064,-15.9098 1.79063,-13.06411 13.69982,-23.67962 32.20368,-28.70539 8.69813,-2.36248 29.6684,-2.37015 42.94975,-0.0157 12.06222,2.13831 14.78953,1.4747 14.31135,-3.48222 -0.27009,-2.79987 -0.83581,-3.31676 -5.76586,-5.26819 -12.69205,-5.02381 -36.52286,-7.19874 -53.25634,-4.86045 -6.71359,0.93813 -8.11769,0.90025 -8.82536,-0.23812 -0.46285,-0.74456 -2.0187,-6.09257 -3.45743,-11.88447 -2.25859,-9.09233 -2.61827,-12.49215 -2.63324,-24.89079 -0.019,-15.75368 1.26327,-23.80854 6.32104,-39.70662 3.63304,-11.41971 11.37836,-27.88011 17.9099,-38.06219 4.5121,-7.03398 4.97248,-8.24696 4.70709,-12.4021 -0.2516,-3.93903 -0.60567,-4.64982 -2.44653,-4.91128 -1.18379,-0.16813 -3.49969,0.65368 -5.14643,1.82627 -4.4682,3.18164 -14.46037,17.2389 -20.3494,28.6281 -9.52652,18.424 -12.47766,28.80275 -23.09699,81.22888 -3.90985,19.30236 -8.41947,39.7438 -10.02139,45.42541 -7.05149,25.01 -14.14483,33.15905 -28.90559,33.20766 -3.51106,0.0116 -7.05346,-0.23597 -7.872,-0.55008 -2.18423,-0.83816 -2.81036,-5.99243 -1.51075,-12.43651 2.18338,-10.82629 2.18552,-10.87064 0.55396,-11.49673 -5.1482,-1.97555 -10.49752,5.38538 -12.47696,17.16889 l -1.15183,6.85679 -6.01736,0.28747 c -10.72875,0.51254 -12.62217,-2.80816 -8.71257,-15.28026 2.63789,-8.41521 2.54152,-10.37668 -0.50983,-10.37668 -5.64749,0 -10.91212,9.32498 -10.94486,19.3861 l -0.021,6.46203 h -4.76462 c -6.84365,0 -8.11256,-2.19177 -7.44681,-12.86282 0.78117,-12.52129 4.85005,-18.5995 17.24455,-25.76041 6.14387,-3.54962 7.3775,-5.77908 8.94367,-16.16334 3.13576,-20.79108 4.04732,-80.88464 1.30468,-86.0093 -1.52542,-2.85027 -6.73381,-2.20163 -8.27452,1.03049 -0.91956,1.92908 -4.13494,26.9593 -4.13494,32.18861 0,0.72172 -0.37697,1.31223 -0.83771,1.31223 -1.28966,0 -12.09579,-14.30305 -21.67221,-28.68544 -7.66862,-11.51714 -8.95571,-12.99084 -11.5696,-13.247 -6.71936,-0.65849 -6.55627,5.27209 0.54181,19.70124 5.86791,11.92843 14.22423,24.45997 22.9307,34.38797 3.78567,4.31681 7.26774,9.19011 7.73793,10.82954 0.85933,2.99634 0.0647,13.3447 -2.0045,26.10332 -1.04904,6.46838 -1.06902,6.49949 -6.58116,10.24272 -13.28312,9.02039 -16.78673,16.26801 -16.78673,34.72526 v 12.20519 l -14.00352,8.7e-4 c -11.68616,7.3e-4 -14.2145,-0.25334 -15.27842,-1.53529 -2.00487,-2.41571 -2.29576,-13.03583 -0.50686,-18.50508 1.85659,-5.6762 1.96238,-8.37333 0.35064,-8.94034 -1.83451,-0.64538 -5.49438,1.00474 -7.5093,3.38573 -2.23974,2.64664 -5.32392,12.74044 -6.1389,20.09116 l -0.61031,5.50469 h -5.52677 c -4.36165,0 -5.90239,-0.41506 -7.30856,-1.96886 z M 499.41585,462.246 c 2.69909,-2.44265 2.17276,-5.65959 -1.36062,-8.31604 -15.27771,-11.48601 -69.76229,-30.34768 -87.5075,-30.29367 -8.56965,0.0261 -12.72603,4.22021 -7.0771,7.14139 1.619,0.83722 8.64632,2.98598 15.61628,4.77504 20.92761,5.37172 40.49377,12.52152 65.32625,23.87131 10.53083,4.81317 12.41155,5.16692 15.00269,2.82197 z m -81.94713,-48.69295 c 24.35721,-3.62292 50.67398,-3.43768 79.40851,0.55893 9.28641,1.29162 10.99071,0.76284 10.99071,-3.41 0,-4.42567 -1.76059,-5.82031 -9.59782,-7.60285 -25.49235,-5.79812 -68.65847,-5.53014 -93.7012,0.5817 -7.62291,1.86042 -9.66689,3.30888 -9.66689,6.8504 0,3.6226 1.44225,5.43224 4.3294,5.43224 1.11747,0 9.32425,-1.08469 18.23729,-2.41042 z m 11.1041,-39.38217 c 0.9629,-0.87141 1.75073,-2.40061 1.75073,-3.39823 0,-4.97175 -8.29828,-14.86529 -15.75765,-18.78688 -4.28223,-2.25128 -5.90227,-2.53746 -14.39851,-2.54345 -7.7379,-0.005 -10.60222,0.40879 -14.93953,2.16065 -11.209,4.52736 -18.07684,10.83721 -18.08506,16.61571 -0.008,5.63825 5.77961,6.02165 14.05306,0.93096 13.43632,-8.26745 23.16205,-7.75784 36.42096,1.90842 7.02671,5.12273 8.32688,5.49214 10.956,3.11282 z m -115.23601,-9.1378 c 3.99502,-3.99502 -2.95542,-15.62163 -12.25393,-20.4982 -4.98119,-2.61237 -15.5031,-2.41003 -20.83494,0.40066 -7.61465,4.01408 -12.05939,13.10605 -8.263,16.90244 1.81815,1.81815 4.02916,1.29304 9.33221,-2.21635 2.69677,-1.78465 5.32259,-2.55993 9.58594,-2.83028 5.68385,-0.36043 6.00964,-0.25186 10.17979,3.39244 6.89897,6.02902 9.89039,7.21283 12.25393,4.84929 z m 183.74343,-50.7868 c 1.25421,-1.60558 3.4551,-10.84642 6.42136,-26.96129 2.84281,-15.44419 3.00932,-19.0117 0.96646,-20.70711 -1.26515,-1.04999 -2.27133,-0.46455 -6.79124,3.95146 -8.79808,8.59585 -26.18773,29.55825 -26.18773,31.56808 0,0.47734 2.26171,2.01016 5.02603,3.40627 2.76431,1.39612 7.35787,4.20359 10.20789,6.23883 5.31392,3.79473 8.70787,4.61518 10.35723,2.50376 z"
       id="path5"
       transform="scale(0.26458333)" /><path
       style="fill:#ff9955;fill-opacity:1;stroke-width:0.945228"
       d="m 286.54142,288.05828 c 3.52661,-22.55263 11.43599,-57.08602 13.56158,-59.21161 0.64316,-0.64316 2.2158,0.26461 4.81631,2.78008 5.20147,5.03138 21.1486,23.09148 27.03737,30.61979 l 4.76348,6.08971 -8.94531,3.59979 c -11.62317,4.67741 -22.6129,10.7095 -33.32561,18.29189 -4.74093,3.3556 -8.75065,6.10109 -8.9105,6.10109 -0.15985,0 0.29136,-3.72183 1.00268,-8.27074 z"
       id="path6"
       transform="scale(0.26458333)" /><path
       style="fill:#ff0000;fill-opacity:1;stroke-width:0.206693"
       d="m 309.10923,474.95792 c -4.52539,-1.21493 -8.66083,-4.87687 -12.07349,-10.69111 -1.46603,-2.49771 -1.75273,-3.44268 -1.26864,-4.18149 0.49806,-0.76014 2.63352,-1.69835 6.98184,-3.06745 8.33112,-2.62311 13.02271,-3.42975 19.95035,-3.43013 l 3.15207,-1.7e-4 -10e-4,1.91191 c -0.004,6.69514 -2.88491,13.72097 -7.0569,17.21165 -1.17905,0.98651 -2.94035,1.9069 -4.38551,2.2917 -1.36896,0.36451 -3.85187,0.34346 -5.2985,-0.0449 z"
       id="path7"
       transform="scale(0.26458333)" /></g></svg>
